<?xml version="1.0" standalone="no"?>
<!DOCTYPE svg PUBLIC "-//W3C//DTD SVG 20010904//EN"
 "http://www.w3.org/TR/2001/REC-SVG-20010904/DTD/svg10.dtd">
<svg version="1.0" xmlns="http://www.w3.org/2000/svg"
 width="159.000000pt" height="159.000000pt" viewBox="0 0 159.000000 159.000000"
 preserveAspectRatio="xMidYMid meet">
<metadata>
Created by potrace 1.11, written by Peter Selinger 2001-2013
</metadata>
<g transform="translate(0.000000,159.000000) scale(0.100000,-0.100000)"
fill="#000000" stroke="none">
<path d="M475 1561 c-79 -28 -115 -50 -172 -103 -92 -87 -153 -213 -153 -313
l0 -45 149 0 148 0 7 42 c13 80 116 150 199 134 89 -17 153 -102 143 -191 -3
-28 -15 -63 -28 -80 -12 -16 -143 -168 -290 -337 l-268 -307 0 -60 0 -61 188
0 187 0 140 140 140 140 -69 0 -69 0 139 143 c148 151 190 213 219 322 63 242
-80 503 -316 576 -81 25 -224 25 -294 0z"/>
<path d="M1128 1132 c6 -109 -22 -213 -80 -304 l-38 -59 0 -124 0 -125 -53 0
-52 0 -140 -140 -140 -140 193 0 192 0 0 -120 0 -120 140 0 140 0 0 120 0 120
80 0 80 0 0 140 0 139 -77 3 -78 3 -3 348 -2 347 -84 0 -83 0 5 -88z"/>
</g>
</svg>
