<svg xmlns="http://www.w3.org/2000/svg" viewBox="0 0 398.6 101.94"><defs><style>.cls-1{fill:#ccc;}</style></defs><title>Asset 3</title><g id="Layer_2" data-name="Layer 2"><g id="Layer_1-2" data-name="Layer 1"><path class="cls-1" d="M22.62,2.75,12.91,51.48h56l-.58,2.75h-56L2.9,101.5H0L20.3,0H85.7l-.58,2.75Z"/><path class="cls-1" d="M134.56,26.1,134,29h-1.3c-18.42,0-30.45,11.6-34.8,33.35L90.05,101.5h-2.9l14.93-75H105l-3.91,19.28C107.59,33.35,118.18,26.1,134.56,26.1Z"/><path class="cls-1" d="M138.47,71.49c0-26,17.7-45.39,42.35-45.39,19.57,0,31.9,11.75,31.9,30.45,0,26.1-17.69,45.39-42.34,45.39C150.8,101.94,138.47,90.19,138.47,71.49ZM209.82,56.7c0-17.69-10.88-27.84-29.44-27.84-22.47,0-39,18.12-39,42.48,0,17.69,10.87,27.84,29.43,27.84C193.29,99.18,209.82,81.2,209.82,56.7Z"/><path class="cls-1" d="M361.05,49.16a42,42,0,0,1-.87,8.12l-8.84,44.22h-2.9l8.84-44.22a40.54,40.54,0,0,0,.87-8c0-12.76-7.54-20.44-22.76-20.44-17.55,0-31.18,9.86-34.95,28.56l-8.85,44.08h-2.9l8.85-44.22a40.54,40.54,0,0,0,.87-8c0-12.76-7.54-20.44-22.77-20.44-18.27,0-31.46,10.87-35.52,31l-8.27,41.61H229l14.94-75h2.9l-3.63,18.27C250.56,31.9,262,26.1,275.93,26.1c15.95,0,24.36,8,25.23,20.45,7.26-13.78,19.58-20.45,34.37-20.45C352.79,26.1,361.05,35.24,361.05,49.16Z"/><path class="cls-1" d="M377.29,98.17a3.77,3.77,0,1,1,3.77,3.77A3.84,3.84,0,0,1,377.29,98.17Zm13.77-68.3a3.77,3.77,0,1,1,3.77,3.77A3.84,3.84,0,0,1,391.06,29.87Z"/></g></g></svg>