<svg xmlns="http://www.w3.org/2000/svg" viewBox="0 0 171.1 101.94"><defs><style>.cls-1{fill:#ccc;}</style></defs><title>Asset 4</title><g id="Layer_2" data-name="Layer 2"><g id="Layer_1-2" data-name="Layer 1"><path class="cls-1" d="M37.7,2.75H0L.58,0h78.3L78.3,2.75H40.6L20.88,101.5H18Z"/><path class="cls-1" d="M65.83,71.49c0-26,17.69-45.39,42.34-45.39,19.58,0,31.9,11.75,31.9,30.45,0,26.1-17.69,45.39-42.34,45.39C78.15,101.94,65.83,90.19,65.83,71.49ZM137.17,56.7c0-17.69-10.88-27.84-29.44-27.84-22.47,0-39,18.12-39,42.48C68.73,89,79.6,99.18,98.17,99.18,120.64,99.18,137.17,81.2,137.17,56.7Z"/><path class="cls-1" d="M149.78,98.17a3.77,3.77,0,1,1,3.77,3.77A3.84,3.84,0,0,1,149.78,98.17Zm13.78-68.3a3.77,3.77,0,1,1,3.77,3.77A3.84,3.84,0,0,1,163.56,29.87Z"/></g></g></svg>